<mxfile host="Electron" modified="2023-04-14T00:22:44.610Z" agent="Mozilla/5.0 (Windows NT 10.0; Win64; x64) AppleWebKit/537.36 (KHTML, like Gecko) draw.io/21.1.2 Chrome/106.0.5249.199 Electron/21.4.3 Safari/537.36" etag="PROMxoasbprBdfwyKxMm" version="21.1.2" type="device">
  <diagram name="Page-1" id="xy-n6-061y-pFXIWTfG7">
    <mxGraphModel dx="1026" dy="989" grid="1" gridSize="10" guides="1" tooltips="1" connect="1" arrows="1" fold="1" page="1" pageScale="1" pageWidth="850" pageHeight="1100" math="0" shadow="0">
      <root>
        <mxCell id="0" />
        <mxCell id="1" parent="0" />
        <mxCell id="I9Dee6KEUXgjO6x_GO54-4" value="&amp;nbsp; &amp;nbsp; &amp;nbsp; pkg PhoneParser" style="swimlane;whiteSpace=wrap;html=1;align=left;" vertex="1" parent="1">
          <mxGeometry x="10" y="390" width="830" height="390" as="geometry" />
        </mxCell>
        <mxCell id="I9Dee6KEUXgjO6x_GO54-20" style="edgeStyle=orthogonalEdgeStyle;rounded=0;orthogonalLoop=1;jettySize=auto;html=1;exitX=1;exitY=0.5;exitDx=0;exitDy=0;entryX=0;entryY=0.5;entryDx=0;entryDy=0;endArrow=open;endFill=0;dashed=1;" edge="1" parent="I9Dee6KEUXgjO6x_GO54-4" source="I9Dee6KEUXgjO6x_GO54-9" target="I9Dee6KEUXgjO6x_GO54-10">
          <mxGeometry relative="1" as="geometry" />
        </mxCell>
        <mxCell id="I9Dee6KEUXgjO6x_GO54-9" value="PhoneParser" style="swimlane;whiteSpace=wrap;html=1;" vertex="1" parent="I9Dee6KEUXgjO6x_GO54-4">
          <mxGeometry x="30" y="95" width="340" height="200" as="geometry" />
        </mxCell>
        <mxCell id="I9Dee6KEUXgjO6x_GO54-16" value="Number" style="text;html=1;align=left;verticalAlign=middle;resizable=0;points=[];autosize=1;strokeColor=none;fillColor=none;" vertex="1" parent="I9Dee6KEUXgjO6x_GO54-9">
          <mxGeometry x="15" y="65" width="70" height="30" as="geometry" />
        </mxCell>
        <mxCell id="I9Dee6KEUXgjO6x_GO54-17" value="Country code" style="text;html=1;align=left;verticalAlign=middle;resizable=0;points=[];autosize=1;strokeColor=none;fillColor=none;" vertex="1" parent="I9Dee6KEUXgjO6x_GO54-9">
          <mxGeometry x="15" y="85" width="90" height="30" as="geometry" />
        </mxCell>
        <mxCell id="I9Dee6KEUXgjO6x_GO54-18" value="digit_length_validator()" style="text;html=1;align=left;verticalAlign=middle;resizable=0;points=[];autosize=1;strokeColor=none;fillColor=none;" vertex="1" parent="I9Dee6KEUXgjO6x_GO54-9">
          <mxGeometry x="15" y="125" width="140" height="30" as="geometry" />
        </mxCell>
        <mxCell id="I9Dee6KEUXgjO6x_GO54-10" value="CountryCodes" style="swimlane;whiteSpace=wrap;html=1;" vertex="1" parent="I9Dee6KEUXgjO6x_GO54-4">
          <mxGeometry x="450" y="95" width="360" height="200" as="geometry" />
        </mxCell>
        <mxCell id="I9Dee6KEUXgjO6x_GO54-11" value="CodeArray[]" style="text;html=1;align=center;verticalAlign=middle;resizable=0;points=[];autosize=1;strokeColor=none;fillColor=none;" vertex="1" parent="I9Dee6KEUXgjO6x_GO54-10">
          <mxGeometry x="10" y="50" width="90" height="30" as="geometry" />
        </mxCell>
        <mxCell id="I9Dee6KEUXgjO6x_GO54-12" value="extraced_number" style="text;html=1;align=center;verticalAlign=middle;resizable=0;points=[];autosize=1;strokeColor=none;fillColor=none;" vertex="1" parent="I9Dee6KEUXgjO6x_GO54-10">
          <mxGeometry x="10" y="65" width="120" height="30" as="geometry" />
        </mxCell>
        <mxCell id="I9Dee6KEUXgjO6x_GO54-13" value="country_code" style="text;html=1;align=center;verticalAlign=middle;resizable=0;points=[];autosize=1;strokeColor=none;fillColor=none;" vertex="1" parent="I9Dee6KEUXgjO6x_GO54-10">
          <mxGeometry x="10" y="80" width="100" height="30" as="geometry" />
        </mxCell>
        <mxCell id="I9Dee6KEUXgjO6x_GO54-14" value="country_code_validator()" style="text;html=1;align=left;verticalAlign=middle;resizable=0;points=[];autosize=1;strokeColor=none;fillColor=none;" vertex="1" parent="I9Dee6KEUXgjO6x_GO54-10">
          <mxGeometry x="20" y="110" width="160" height="30" as="geometry" />
        </mxCell>
        <mxCell id="I9Dee6KEUXgjO6x_GO54-15" value="country_code()" style="text;html=1;align=left;verticalAlign=middle;resizable=0;points=[];autosize=1;strokeColor=none;fillColor=none;" vertex="1" parent="I9Dee6KEUXgjO6x_GO54-10">
          <mxGeometry x="20" y="125" width="100" height="30" as="geometry" />
        </mxCell>
      </root>
    </mxGraphModel>
  </diagram>
</mxfile>
